<?xml version="1.0" encoding="UTF-8"?>
<svg xmlns="http://www.w3.org/2000/svg" xmlns:xlink="http://www.w3.org/1999/xlink" width="402.461" height="289.245" viewBox="0 0 402.461 289.245">
<defs>
<g>
<g id="glyph-1729157750210561--0-0">
<path d="M 16.6875 -12.765625 C 16.6875 -15.1875 16.65625 -19.3125 14.984375 -22.5 C 13.515625 -25.28125 11.171875 -26.28125 9.109375 -26.28125 C 7.1875 -26.28125 4.765625 -25.40625 3.265625 -22.53125 C 1.671875 -19.5625 1.515625 -15.859375 1.515625 -12.765625 C 1.515625 -10.5 1.546875 -7.03125 2.78125 -4.015625 C 4.484375 0.078125 7.546875 0.640625 9.109375 0.640625 C 10.9375 0.640625 13.71875 -0.125 15.34375 -3.890625 C 16.53125 -6.640625 16.6875 -9.859375 16.6875 -12.765625 Z M 14.15625 -13.203125 C 14.15625 -10.609375 14.15625 -7.4375 13.671875 -5.09375 C 12.84375 -0.75 10.5 0 9.109375 0 C 6.5625 0 5.046875 -2.1875 4.484375 -5.203125 C 4.046875 -7.546875 4.046875 -10.96875 4.046875 -13.203125 C 4.046875 -16.25 4.046875 -18.796875 4.578125 -21.21875 C 5.328125 -24.609375 7.546875 -25.640625 9.109375 -25.640625 C 10.734375 -25.640625 12.84375 -24.5625 13.59375 -21.3125 C 14.109375 -19.046875 14.15625 -16.375 14.15625 -13.203125 Z M 14.15625 -13.203125 "/>
</g>
<g id="glyph-1729157750210561--1-0">
<path d="M 6.40625 -9.3125 L 9.203125 -9.3125 C 8.53125 -6.546875 8.109375 -4.75 8.109375 -2.765625 C 8.109375 -2.421875 8.109375 0.25 9.125 0.25 C 9.640625 0.25 10.078125 -0.21875 10.078125 -0.640625 C 10.078125 -0.765625 10.078125 -0.8125 9.90625 -1.1875 C 9.25 -2.890625 9.25 -5.015625 9.25 -5.1875 C 9.25 -5.34375 9.25 -7.09375 9.765625 -9.3125 L 12.53125 -9.3125 C 12.859375 -9.3125 13.671875 -9.3125 13.671875 -10.109375 C 13.671875 -10.65625 13.203125 -10.65625 12.75 -10.65625 L 4.625 -10.65625 C 4.046875 -10.65625 3.21875 -10.65625 2.078125 -9.4375 C 1.4375 -8.71875 0.640625 -7.421875 0.640625 -7.265625 C 0.640625 -7.125 0.765625 -7.0625 0.921875 -7.0625 C 1.09375 -7.0625 1.109375 -7.140625 1.234375 -7.296875 C 2.515625 -9.3125 3.8125 -9.3125 4.421875 -9.3125 L 5.828125 -9.3125 C 5.296875 -7.46875 4.671875 -5.3125 2.640625 -0.984375 C 2.453125 -0.59375 2.453125 -0.546875 2.453125 -0.390625 C 2.453125 0.125 2.890625 0.25 3.109375 0.25 C 3.828125 0.25 4.03125 -0.390625 4.328125 -1.4375 C 4.71875 -2.6875 4.71875 -2.75 4.96875 -3.734375 Z M 6.40625 -9.3125 "/>
</g>
<g id="glyph-1729157750210561--2-0">
<path d="M 10.3125 -3.828125 L 9.859375 -3.828125 C 9.609375 -2.078125 9.421875 -1.78125 9.3125 -1.625 C 9.203125 -1.4375 7.421875 -1.4375 7.0625 -1.4375 L 2.328125 -1.4375 C 3.21875 -2.390625 4.9375 -4.15625 7.046875 -6.1875 C 8.546875 -7.609375 10.3125 -9.296875 10.3125 -11.734375 C 10.3125 -14.65625 7.984375 -16.34375 5.390625 -16.34375 C 2.671875 -16.34375 1.015625 -13.9375 1.015625 -11.71875 C 1.015625 -10.75 1.734375 -10.625 2.03125 -10.625 C 2.28125 -10.625 3.015625 -10.78125 3.015625 -11.640625 C 3.015625 -12.40625 2.375 -12.625 2.03125 -12.625 C 1.875 -12.625 1.734375 -12.609375 1.625 -12.5625 C 2.09375 -14.65625 3.53125 -15.703125 5.046875 -15.703125 C 7.1875 -15.703125 8.609375 -13.984375 8.609375 -11.734375 C 8.609375 -9.59375 7.34375 -7.734375 5.9375 -6.125 L 1.015625 -0.5625 L 1.015625 0 L 9.71875 0 Z M 10.3125 -3.828125 "/>
</g>
<g id="glyph-1729157750210561--2-1">
<path d="M 5.46875 -8.40625 C 7.65625 -8.40625 8.625 -6.5 8.625 -4.296875 C 8.625 -1.328125 7.046875 -0.203125 5.609375 -0.203125 C 4.296875 -0.203125 2.171875 -0.84375 1.515625 -2.75 C 1.625 -2.6875 1.75 -2.6875 1.875 -2.6875 C 2.46875 -2.6875 2.921875 -3.09375 2.921875 -3.734375 C 2.921875 -4.453125 2.375 -4.765625 1.875 -4.765625 C 1.453125 -4.765625 0.8125 -4.578125 0.8125 -3.65625 C 0.8125 -1.390625 3.046875 0.390625 5.65625 0.390625 C 8.40625 0.390625 10.5 -1.75 10.5 -4.28125 C 10.5 -6.671875 8.53125 -8.40625 6.1875 -8.671875 C 8.0625 -9.078125 9.859375 -10.75 9.859375 -13 C 9.859375 -14.9375 7.90625 -16.34375 5.6875 -16.34375 C 3.4375 -16.34375 1.453125 -14.953125 1.453125 -12.984375 C 1.453125 -12.109375 2.09375 -11.96875 2.421875 -11.96875 C 2.9375 -11.96875 3.390625 -12.28125 3.390625 -12.921875 C 3.390625 -13.578125 2.9375 -13.890625 2.421875 -13.890625 C 2.328125 -13.890625 2.203125 -13.890625 2.09375 -13.84375 C 2.8125 -15.46875 4.765625 -15.765625 5.640625 -15.765625 C 6.5 -15.765625 8.125 -15.34375 8.125 -12.984375 C 8.125 -12.28125 8.03125 -11.046875 7.1875 -9.96875 C 6.453125 -9 5.609375 -8.953125 4.796875 -8.875 C 4.671875 -8.875 4.109375 -8.828125 4 -8.828125 C 3.828125 -8.796875 3.734375 -8.78125 3.734375 -8.609375 C 3.734375 -8.421875 3.75 -8.40625 4.25 -8.40625 Z M 5.46875 -8.40625 "/>
</g>
</g>
<clipPath id="clip-1729157750210561--0">
<path clip-rule="nonzero" d="M 0.253906 0 L 401.667969 0 L 401.667969 288.492188 L 0.253906 288.492188 Z M 0.253906 0 "/>
</clipPath>
<clipPath id="clip-1729157750210561--1">
<path clip-rule="nonzero" d="M 11.359375 4.476562 L 391.867188 4.476562 L 391.867188 241.363281 L 11.359375 241.363281 Z M 11.359375 4.476562 "/>
</clipPath>
</defs>
<g clip-path="url(#clip-1729157750210561--0)">
<path fill-rule="nonzero" fill="rgb(100%, 100%, 100%)" fill-opacity="1" d="M 0.253906 288.492188 L 401.667969 288.492188 L 401.667969 0 L 0.253906 0 Z M 0.253906 288.492188 "/>
<path fill-rule="nonzero" fill="rgb(100%, 100%, 100%)" fill-opacity="1" d="M 0.253906 288.496094 L 0.253906 0 L 401.671875 0 L 401.671875 288.496094 Z M 0.253906 288.496094 "/>
</g>
<path fill-rule="nonzero" fill="rgb(100%, 100%, 100%)" fill-opacity="1" d="M 11.359375 241.363281 L 391.867188 241.363281 L 391.867188 4.476562 L 11.359375 4.476562 Z M 11.359375 241.363281 "/>
<path fill="none" stroke-width="0.19925" stroke-linecap="butt" stroke-linejoin="miter" stroke="rgb(0%, 0%, 0%)" stroke-opacity="1" stroke-miterlimit="10" d="M 10.796907 0.000701715 L 10.796907 4.250046 M 100.773344 0.000701715 L 100.773344 4.250046 M 190.74978 0.000701715 L 190.74978 4.250046 M 280.726217 0.000701715 L 280.726217 4.250046 M 370.70657 0.000701715 L 370.70657 4.250046 " transform="matrix(0.997397, 0, 0, -0.997397, 11.360108, 241.363981)"/>
<path fill="none" stroke-width="0.99628" stroke-linecap="butt" stroke-linejoin="miter" stroke="rgb(0%, 0%, 0%)" stroke-opacity="1" stroke-miterlimit="10" d="M -0.000734948 0.000701715 L 381.500296 0.000701715 " transform="matrix(0.997397, 0, 0, -0.997397, 11.360108, 241.363981)"/>
<g fill="rgb(0%, 0%, 0%)" fill-opacity="1">
<use xlink:href="#glyph-1729157750210561--0-0" x="13.007807" y="271.14724"/>
</g>
<g fill="rgb(0%, 0%, 0%)" fill-opacity="1">
<use xlink:href="#glyph-1729157750210561--1-0" x="104.560831" y="255.519033"/>
</g>
<path fill="none" stroke-width="0.398" stroke-linecap="butt" stroke-linejoin="miter" stroke="rgb(0%, 0%, 0%)" stroke-opacity="1" stroke-miterlimit="10" d="M 0.00167294 -0.00146565 L 14.657015 -0.00146565 " transform="matrix(0.997397, 0, 0, -0.997397, 104.560831, 259.072757)"/>
<g fill="rgb(0%, 0%, 0%)" fill-opacity="1">
<use xlink:href="#glyph-1729157750210561--2-0" x="106.201549" y="275.605602"/>
</g>
<g fill="rgb(0%, 0%, 0%)" fill-opacity="1">
<use xlink:href="#glyph-1729157750210561--1-0" x="194.302584" y="255.519033"/>
</g>
<g fill="rgb(0%, 0%, 0%)" fill-opacity="1">
<use xlink:href="#glyph-1729157750210561--2-1" x="278.375134" y="260.811219"/>
</g>
<g fill="rgb(0%, 0%, 0%)" fill-opacity="1">
<use xlink:href="#glyph-1729157750210561--1-0" x="289.713538" y="260.811219"/>
</g>
<path fill="none" stroke-width="0.398" stroke-linecap="butt" stroke-linejoin="miter" stroke="rgb(0%, 0%, 0%)" stroke-opacity="1" stroke-miterlimit="10" d="M -0.000134039 0.0016661 L 26.024651 0.0016661 " transform="matrix(0.997397, 0, 0, -0.997397, 278.375134, 264.364943)"/>
<g fill="rgb(0%, 0%, 0%)" fill-opacity="1">
<use xlink:href="#glyph-1729157750210561--2-0" x="285.684056" y="280.897788"/>
</g>
<g fill="rgb(0%, 0%, 0%)" fill-opacity="1">
<use xlink:href="#glyph-1729157750210561--2-0" x="368.116886" y="260.811219"/>
</g>
<g fill="rgb(0%, 0%, 0%)" fill-opacity="1">
<use xlink:href="#glyph-1729157750210561--1-0" x="379.45529" y="260.811219"/>
</g>
<g clip-path="url(#clip-1729157750210561--1)">
<path fill="none" stroke-width="3.9851" stroke-linecap="butt" stroke-linejoin="miter" stroke="rgb(0%, 60.559082%, 97.869873%)" stroke-opacity="1" stroke-miterlimit="10" d="M 10.796907 7.653438 L 12.23816 6.721324 L 13.675495 11.734375 L 15.116748 13.684765 L 16.554083 17.930193 L 17.995336 22.524184 L 19.436588 28.81008 L 20.873924 31.449765 L 22.315176 34.884489 L 23.752512 39.451065 L 25.193764 44.28396 L 26.635016 49.712154 L 28.072352 53.299619 L 29.513604 59.444523 L 30.95094 68.397519 L 32.392192 74.72258 L 33.829528 78.266964 L 35.27078 84.968003 L 36.712032 92.667737 L 38.149368 101.800889 L 39.59062 110.048925 L 41.027956 113.452317 L 42.469208 120.20427 L 43.910461 125.636381 L 45.347796 131.303479 L 46.789049 133.085462 L 48.226384 136.810003 L 49.667637 138.180759 L 51.104972 142.183367 L 52.546225 141.607649 L 53.987477 144.450989 L 55.424813 149.5972 L 56.866065 162.251238 L 58.303401 170.256454 L 59.744653 177.811279 L 61.185905 183.768193 L 62.623241 187.700305 L 64.064493 194.440509 L 65.501829 198.87001 L 66.943081 202.856952 L 68.380417 207.106297 L 69.821669 214.347806 L 71.262921 221.420908 L 72.700257 225.658503 L 74.141509 222.658505 L 75.578845 224.307329 L 77.020097 225.701584 L 78.46135 225.121949 L 79.898685 224.550148 L 81.339938 222.638923 L 82.777273 218.812555 L 84.218526 214.986187 L 85.655861 211.25773 L 87.097114 207.458777 L 88.538366 204.78776 L 89.975702 203.103689 L 91.416954 199.837372 L 92.85429 196.359568 L 94.295542 191.248606 L 95.736794 183.858272 L 97.17413 180.309971 L 98.615382 176.350444 L 100.052718 173.264284 L 101.49397 167.252539 L 102.935222 160.637662 L 104.372558 153.909207 L 105.81381 150.36874 L 107.251146 151.786493 L 108.692398 153.055422 L 110.129734 155.264297 L 111.570986 159.6703 L 113.012238 161.048889 L 114.449574 167.436612 L 115.890826 172.441831 L 117.328162 177.850443 L 118.769414 175.66115 L 120.210667 171.658542 L 121.648002 154.312601 L 123.089255 143.276055 L 124.526591 131.483636 L 125.967843 127.089383 L 127.405179 120.482338 L 128.846431 110.746053 L 130.287683 103.661201 L 131.725019 95.358335 L 133.166271 92.890974 L 134.603607 85.802206 L 136.044859 79.077668 L 137.486111 74.851823 L 138.923447 76.833545 L 140.364699 76.821795 L 141.802035 74.695165 L 143.243287 74.581588 L 144.680623 74.675583 L 146.121875 74.812658 L 147.563127 75.302214 L 149.000463 77.436677 L 150.441715 78.212134 L 151.879051 82.473227 L 153.320303 82.739546 L 154.761556 88.81787 L 156.198891 95.119432 L 157.640144 100.003241 L 159.077479 106.763027 L 160.518732 114.153361 L 161.956067 118.900094 L 163.39732 124.042388 L 164.838572 126.823065 L 166.275908 131.052827 L 167.71716 134.103738 L 169.154496 140.401384 L 170.595748 141.486239 L 172.037 141.031932 L 173.474336 140.127233 L 174.915588 139.300862 L 176.352924 136.500603 L 177.794176 131.158571 L 179.235428 128.640296 L 180.672764 122.753877 L 182.114016 119.111582 L 183.551352 117.466675 L 184.992604 119.483644 L 186.42994 126.576329 L 187.871192 130.665098 L 189.312445 132.450998 L 190.74978 127.868756 L 192.191033 123.866148 L 193.628368 118.931425 L 195.069621 115.007146 L 196.510873 115.359626 L 197.948209 117.388346 L 199.389461 119.710798 L 200.826797 122.981031 L 202.268049 127.206876 L 203.705385 131.029328 L 205.146637 132.815227 L 206.587889 131.969275 L 208.025225 132.584157 L 209.466477 130.461443 L 210.903813 129.286509 L 212.345065 127.618103 L 213.786317 121.884426 L 215.223653 121.512364 L 216.664905 117.180774 L 218.102241 115.935344 L 219.543493 108.18078 L 220.980829 98.816557 L 222.422081 93.995412 L 223.863334 83.746072 L 225.300669 81.603776 L 226.741922 77.260437 L 228.179257 76.97062 L 229.62051 76.410568 L 231.061762 76.520229 L 232.499098 76.093336 L 233.94035 74.021536 L 235.377686 77.965398 L 236.818938 82.097248 L 238.26019 82.253906 L 239.697526 84.819178 L 241.138778 87.435365 L 242.576114 90.811341 L 244.017366 96.548935 L 245.454702 99.216035 L 246.895954 104.702976 L 248.337206 114.227773 L 249.774542 124.578941 L 251.215794 128.840035 L 252.65313 136.120708 L 254.094382 146.256471 L 255.535635 159.544973 L 256.97297 173.773423 L 258.414223 182.146785 L 259.851558 193.159832 L 261.292811 193.559309 L 262.730146 193.112834 L 264.171399 191.397431 L 265.612651 187.676807 L 267.049987 181.132425 L 268.491239 176.699008 L 269.928575 174.059323 L 271.369827 172.340003 L 272.811079 171.5058 L 274.248415 170.914417 L 275.689667 171.106323 L 277.127003 174.443135 L 278.568255 180.415715 L 280.005591 184.296914 L 281.446843 188.851741 L 282.888095 191.742078 L 284.325431 195.027976 L 285.766683 201.349121 L 287.204019 204.791677 L 288.645271 213.392193 L 290.086523 215.534489 L 291.523859 221.526652 L 292.965111 222.161116 L 294.402447 226.163724 L 295.843699 226.159808 L 297.281035 226.806021 L 298.722287 230.781214 L 300.16354 227.432653 L 301.600875 224.084091 L 303.042128 224.021428 L 304.479463 221.957461 L 305.920716 221.044929 L 307.361968 218.761641 L 308.799304 218.2995 L 310.240556 215.174176 L 311.677892 208.676792 L 313.119144 202.465308 L 314.560396 193.735549 L 315.997732 183.41963 L 317.438984 180.666368 L 318.87632 173.240786 L 320.317572 165.439225 L 321.754908 155.977091 L 323.19616 149.5972 L 324.637412 143.679449 L 326.074748 141.787806 L 327.516 136.594598 L 328.953336 132.619405 L 330.394588 129.443167 L 331.835841 127.833508 L 333.273176 123.102441 L 334.714429 118.120721 L 336.151764 116.448399 L 337.593017 108.924905 L 339.030352 103.688617 L 340.471605 98.095931 L 341.912857 89.930141 L 343.350193 85.837455 L 344.791445 78.290463 L 346.228781 71.961485 L 347.670033 65.7735 L 349.111285 60.482381 L 350.548621 55.778729 L 351.989873 50.154713 L 353.427209 41.217382 L 354.868461 35.068562 L 356.305797 32.166475 L 357.747049 26.765695 L 359.188301 22.966743 L 360.625637 20.131236 L 362.066889 17.048992 L 363.504225 14.961526 L 364.945477 14.060744 L 366.38673 12.055523 L 367.824065 8.91845 L 369.265318 8.855787 L 370.702653 8.855787 " transform="matrix(0.997397, 0, 0, -0.997397, 11.360108, 241.363981)"/>
</g>
</svg>

